<svg width='200' height='200' fill="#000000" xmlns="http://www.w3.org/2000/svg" xmlns:xlink="http://www.w3.org/1999/xlink" version="1.1" x="0px" y="0px" viewBox="0 0 100 100" enable-background="new 0 0 100 100" xml:space="preserve"><path d="M70.501,64.962c0-9.755-5.701-15.456-16.993-20.059c-9.533-3.949-13.595-6.799-13.595-12.494  c0-4.388,3.183-8.428,11.625-8.428c7.015,0,11.507,1.414,13.81,2.727l2.74-7.239c-2.775-1.626-6.643-3.105-11.933-3.614V5h-2.316  h-6.799h-1.977v11.544c-8.917,2.187-14.573,8.7-14.573,17.178c0,9.533,6.904,14.582,18.085,18.961  c8.115,3.29,12.39,7.015,12.39,13.044c0,6.252-5.264,9.742-13.051,9.742c-6.134,0-11.835-1.079-15.784-3.708l-2.629,7.343  c3.594,2.566,9.589,4.399,15.56,4.721V95h1.211h6.904h2.975V82.864C65.497,80.166,70.501,72.819,70.501,64.962z"/></svg>