<svg width='200' height='200' fill="#000000" xmlns:dc="http://purl.org/dc/elements/1.1/" xmlns:cc="http://creativecommons.org/ns#" xmlns:rdf="http://www.w3.org/1999/02/22-rdf-syntax-ns#" xmlns:svg="http://www.w3.org/2000/svg" xmlns="http://www.w3.org/2000/svg" xmlns:sodipodi="http://sodipodi.sourceforge.net/DTD/sodipodi-0.dtd" xmlns:inkscape="http://www.inkscape.org/namespaces/inkscape" version="1.1" x="0px" y="0px" viewBox="0 0 100 100"><g transform="translate(0,-952.36218)"><path style="text-indent:0;text-transform:none;direction:ltr;block-progression:tb;baseline-shift:baseline;color:#000000;enable-background:accumulate;" d="m 30.247938,966.40415 c -5.6884,0 -11.3824,2.1488 -15.718801,6.46875 -8.6726995,8.63992 -8.6616995,22.69793 0,31.3437 l 33.343801,33.2812 c 1.109,1.0965 3.1098,1.0965 4.2188,0 11.124,-11.0817 22.2511,-22.137 33.375,-33.2187 8.6727,-8.63987 8.6727,-22.70379 0,-31.3437 -8.6727,-8.63992 -22.7648,-8.64004 -31.4376,0 l -4,4 -4.0624,-4.0625 c -4.3365,-4.31994 -10.0304,-6.46875 -15.7188,-6.46875 z m 11.4688,10.71875 6.1874,6.15625 c 1.109,1.09646 3.1098,1.09646 4.2188,0 l 6.1562,-6.09375 c 6.3915,-6.3673 16.5462,-6.3672 22.9376,0 6.3914,6.36721 6.3914,16.44533 0,22.81253 -10.4191,10.37967 -20.7995,20.77647 -31.2188,31.15617 l -31.2188,-31.18747 c -6.3876,-6.3758 -6.4226,-16.47653 -0.031,-22.84373 6.801,-6.14923 16.6864,-6.41079 22.9686,0 z" fill="#000000" fill-opacity="1" stroke="none" marker="none" visibility="visible" display="inline" overflow="visible"/></g></svg>