<svg width='200' height='200' fill="#000000" xmlns:dc="http://purl.org/dc/elements/1.1/" xmlns:cc="http://creativecommons.org/ns#" xmlns:rdf="http://www.w3.org/1999/02/22-rdf-syntax-ns#" xmlns:svg="http://www.w3.org/2000/svg" xmlns="http://www.w3.org/2000/svg" xmlns:sodipodi="http://sodipodi.sourceforge.net/DTD/sodipodi-0.dtd" xmlns:inkscape="http://www.inkscape.org/namespaces/inkscape" version="1.1" x="0px" y="0px" viewBox="0 0 100 100"><g transform="translate(0,-952.36218)"><path style="text-indent:0;text-transform:none;direction:ltr;block-progression:tb;baseline-shift:baseline;color:#000000;enable-background:accumulate;" d="m 8.9687485,973.36218 c -2.1896,0 -3.96875,1.8733 -3.96875,4 l 0,50.00002 c 0,2.1267 1.77915,4 3.96875,4 l 82.0625035,0 c 2.1896,0 3.96875,-1.8733 3.96875,-4 l 0,-50.00002 c 0,-2.1267 -1.77915,-4 -3.96875,-4 l -82.0625035,0 z m 2.0312495,6 78.000004,0 0,1.4375 -39.000003,27.84372 -39,-27.84372 0,-1.4375 z m 0,8.8438 37.25,26.59372 a 3.0003,3.0003 0 0 0 3.5,0 l 37.250003,-26.59372 0,37.15622 -78.000003,0 0,-37.15622 z" fill="#000000" fill-opacity="1" stroke="none" marker="none" visibility="visible" display="inline" overflow="visible"/></g></svg>