<svg width='200' height='200' fill="#000000" xmlns="http://www.w3.org/2000/svg" xmlns:xlink="http://www.w3.org/1999/xlink" version="1.1" x="0px" y="0px" viewBox="0 0 100 100" enable-background="new 0 0 100 100" xml:space="preserve"><path fill="#000000" d="M21.554,56.627c0.004,0.025,0.017,0.046,0.024,0.07c0.005,0.018,0.004,0.035,0.011,0.053l0.257,0.6  c0.005,0.013,0.019,0.018,0.025,0.029c0.012,0.024,0.018,0.05,0.034,0.072l0.391,0.523c0.01,0.014,0.026,0.019,0.038,0.031  c0.018,0.021,0.03,0.044,0.052,0.062l0.425,0.338c0.012,0.01,0.026,0.013,0.038,0.021c0.009,0.006,0.014,0.016,0.023,0.021  l9.231,5.329c0.01,0.006,0.022,0.004,0.033,0.009c0.017,0.009,0.03,0.022,0.048,0.029l0.424,0.152  c0.047,0.017,0.096,0.022,0.144,0.025c0.008,0,0.016,0.004,0.024,0.004c0,0,0,0,0,0l0,0l0,0c0.03,0,0.059-0.003,0.089-0.008  l0.392-0.071c0.023-0.004,0.042-0.018,0.063-0.025c0.028-0.009,0.055-0.019,0.082-0.032c0.039-0.021,0.071-0.048,0.103-0.078  c0.014-0.013,0.031-0.019,0.044-0.033l0.132-0.156c0,0,0-0.001,0-0.001l0.125-0.147c0.008-0.009,0.01-0.021,0.017-0.03  c0.023-0.031,0.041-0.065,0.056-0.103c0.01-0.023,0.02-0.046,0.026-0.071c0.002-0.011,0.01-0.021,0.012-0.032l0.004-0.022  c0-0.001,0-0.001,0-0.002l0.001-0.008c0-0.001,0-0.003,0-0.004c0-0.002,0.001-0.004,0.002-0.006l0.001-0.006l0.072-0.391  c0.005-0.027-0.002-0.053-0.001-0.079c0.001-0.028,0.009-0.057,0.004-0.086l-0.081-0.537c-0.003-0.022-0.016-0.04-0.022-0.062  c-0.006-0.021-0.004-0.041-0.013-0.062l-0.257-0.6c-0.008-0.019-0.023-0.03-0.033-0.048c-0.01-0.018-0.013-0.038-0.026-0.055  l-0.392-0.523c-0.013-0.018-0.033-0.027-0.047-0.043c-0.015-0.016-0.024-0.035-0.042-0.049l-0.424-0.338  c-0.011-0.009-0.024-0.011-0.036-0.018c-0.01-0.007-0.016-0.018-0.026-0.023L23.81,55.17c0,0,0-0.001-0.001-0.001l-0.437-0.253  c-0.014-0.008-0.029-0.008-0.042-0.015c-0.015-0.007-0.026-0.019-0.042-0.024L22.9,54.74c-0.001,0-0.002,0-0.002,0l-0.028-0.011  c-0.009-0.003-0.017-0.001-0.026-0.004c-0.036-0.011-0.072-0.014-0.111-0.017c-0.028-0.002-0.056-0.005-0.083-0.002  c-0.014,0.001-0.026-0.004-0.04-0.001l-0.391,0.069c-0.023,0.004-0.042,0.018-0.063,0.025c-0.033,0.01-0.065,0.02-0.095,0.037  c-0.031,0.018-0.057,0.041-0.083,0.064c-0.017,0.016-0.038,0.024-0.053,0.042l-0.257,0.304c-0.007,0.009-0.009,0.02-0.016,0.029  c-0.018,0.023-0.03,0.051-0.043,0.078c-0.016,0.033-0.031,0.064-0.04,0.1c-0.002,0.01-0.009,0.017-0.011,0.026l-0.081,0.443  c-0.005,0.026,0.002,0.052,0.001,0.078c-0.001,0.028-0.009,0.057-0.004,0.086L21.554,56.627z M32.066,61.09l0.35,0.278l0.317,0.424  l0.208,0.485l0.004,0.031l-8.847-5.107l-0.346-0.276l-0.318-0.424L23.348,56.3l0.211-0.121L32.066,61.09z"/><path fill="#000000" d="M48.256,89.091c0.011,0.007,0.023,0.004,0.035,0.009c0.017,0.009,0.029,0.022,0.048,0.029l0.631,0.225  c0.001,0,0.003,0.001,0.004,0.002h0.001c0.041,0.016,0.083,0.019,0.124,0.021c0.015,0.002,0.028,0.008,0.043,0.008c0,0,0,0,0,0l0,0  l0,0c0.029,0,0.059-0.003,0.089-0.008l0.587-0.106c0.022-0.004,0.04-0.018,0.062-0.024c0.029-0.01,0.057-0.019,0.084-0.033  c0.007-0.004,0.016-0.002,0.023-0.007l0.015-0.009c0,0,0.001,0,0.001-0.001l1.172-0.707l42.184-24.354c0,0,0-0.001,0.001-0.001  h0.001l1.401-0.817c0.005-0.003,0.008-0.008,0.013-0.011c0.004-0.003,0.008-0.002,0.012-0.004l0.473-0.313  c0.001-0.001,0.002-0.002,0.003-0.003c0.002-0.001,0.003-0.004,0.006-0.006c0.076-0.054,0.127-0.127,0.163-0.206  c0.004-0.01,0.015-0.015,0.019-0.024l0.228-0.598c0.001-0.001,0.001-0.002,0.002-0.003l0.006-0.017  c0.01-0.025,0.008-0.051,0.013-0.076c0.007-0.033,0.021-0.064,0.021-0.1l0.019-4.688v-0.001v-0.001V38.362  c0-0.01-0.005-0.019-0.006-0.028c-0.001-0.022-0.005-0.043-0.009-0.065c-0.004-0.023-0.01-0.045-0.018-0.067  c-0.008-0.021-0.015-0.041-0.025-0.061c-0.004-0.009-0.004-0.019-0.009-0.027s-0.015-0.014-0.021-0.022  c-0.012-0.019-0.024-0.035-0.039-0.052c-0.016-0.019-0.032-0.035-0.051-0.051c-0.017-0.015-0.032-0.026-0.051-0.038  c-0.008-0.006-0.014-0.016-0.022-0.021l-0.692-0.4L51.18,12.348l-0.693-0.4c-0.02-0.012-0.042-0.013-0.062-0.021  c-0.031-0.013-0.061-0.024-0.094-0.031c-0.032-0.006-0.062-0.007-0.095-0.007c-0.032,0-0.062,0.001-0.094,0.007  c-0.033,0.007-0.063,0.019-0.095,0.032c-0.02,0.008-0.041,0.009-0.06,0.02l-0.692,0.4l-16.038,9.26  c-0.009,0.005-0.013,0.014-0.021,0.019c-0.019,0.013-0.036,0.025-0.053,0.041c-0.018,0.016-0.034,0.031-0.05,0.05  c-0.014,0.017-0.027,0.032-0.039,0.051c-0.006,0.009-0.015,0.014-0.02,0.022s-0.005,0.02-0.01,0.028  c-0.01,0.02-0.018,0.039-0.024,0.061c-0.008,0.022-0.014,0.044-0.018,0.067c-0.004,0.021-0.007,0.043-0.009,0.064  c0,0.011-0.006,0.019-0.006,0.029v0.507l-0.14,0.93l-0.465,0.936L31.73,25.13l-0.971,0.585l-0.813,0.468  c-0.001,0.001-0.001,0.001-0.002,0.002l-4.922,2.842l-0.808,0.467c-0.001,0.001-0.002,0.001-0.002,0.001l-0.828,0.471l-0.174,0.024  l-0.048-0.265v-0.623c0-0.01-0.005-0.019-0.006-0.029c-0.001-0.021-0.004-0.043-0.009-0.065c-0.004-0.023-0.01-0.045-0.018-0.067  c-0.007-0.021-0.015-0.04-0.024-0.06c-0.005-0.009-0.004-0.02-0.01-0.028s-0.014-0.014-0.02-0.022  c-0.012-0.019-0.025-0.035-0.04-0.053c-0.016-0.018-0.032-0.033-0.05-0.049c-0.016-0.014-0.032-0.026-0.05-0.038  c-0.009-0.007-0.014-0.016-0.024-0.021l-0.692-0.398c-0.02-0.011-0.041-0.012-0.061-0.021c-0.031-0.013-0.061-0.024-0.094-0.031  c-0.032-0.007-0.063-0.007-0.096-0.007c-0.032,0-0.062,0.001-0.094,0.007c-0.034,0.007-0.064,0.02-0.097,0.033  c-0.019,0.008-0.04,0.009-0.059,0.02L5.68,37.529c0,0,0,0-0.001,0l-0.692,0.4c-0.009,0.005-0.014,0.014-0.022,0.02  c-0.019,0.012-0.035,0.025-0.052,0.04c-0.018,0.016-0.034,0.031-0.049,0.049c-0.015,0.018-0.028,0.034-0.04,0.053  c-0.006,0.009-0.015,0.014-0.02,0.022c-0.005,0.009-0.005,0.019-0.009,0.027c-0.01,0.02-0.018,0.039-0.024,0.061  c-0.008,0.022-0.014,0.044-0.018,0.067c-0.004,0.022-0.008,0.043-0.009,0.065c0,0.01-0.006,0.019-0.006,0.028v23.315  c0,0.013,0.006,0.023,0.007,0.036s-0.004,0.025-0.002,0.038l0.122,0.806c0.004,0.026,0.017,0.047,0.024,0.071  c0.005,0.017,0.003,0.034,0.011,0.051l0.385,0.9c0.005,0.012,0.018,0.017,0.023,0.028c0.013,0.024,0.019,0.052,0.036,0.075  l0.587,0.783c0.011,0.014,0.027,0.02,0.039,0.032c0.018,0.019,0.028,0.042,0.049,0.059l0.637,0.509  c0.012,0.01,0.026,0.013,0.039,0.021c0.009,0.006,0.014,0.015,0.023,0.021L48.256,89.091z M92.857,63.271L92.857,63.271  L50.737,87.589V64.631l0.443-0.256l15.313-8.842l0.104,0.571c0.002,0.011,0.009,0.02,0.012,0.03  c0.006,0.025,0.017,0.049,0.027,0.073c0.015,0.035,0.031,0.068,0.055,0.099c0.006,0.01,0.009,0.021,0.017,0.031l0.11,0.131  l0.107,0.126c0.008,0.009,0.018,0.012,0.025,0.02c0.008,0.011,0.012,0.024,0.02,0.034c0,0.001,0.002,0.001,0.002,0.002l0.12,0.142  c0.012,0.014,0.028,0.02,0.042,0.032c0.032,0.03,0.065,0.059,0.105,0.08c0.027,0.015,0.054,0.023,0.082,0.032  c0.022,0.008,0.041,0.021,0.064,0.025l0.586,0.105c0.03,0.005,0.06,0.008,0.089,0.008l0,0l0,0c0.001,0,0.001,0,0.001,0  c0.011,0,0.021-0.005,0.031-0.006c0.045-0.003,0.091-0.007,0.135-0.023l0.002-0.001c0.002,0,0.003,0,0.004-0.001l0.631-0.225  c0.02-0.007,0.031-0.021,0.049-0.028c0.011-0.006,0.023-0.004,0.034-0.01l2.02-1.166l5.048-2.915l1.01-0.583  c0.016-0.009,0.024-0.023,0.039-0.034c0.006-0.005,0.016-0.002,0.022-0.008l0.638-0.508c0.02-0.016,0.03-0.038,0.047-0.057  c0.013-0.014,0.03-0.02,0.041-0.034l0.587-0.784c0.017-0.022,0.022-0.05,0.035-0.074c0.006-0.012,0.019-0.017,0.024-0.028  l0.385-0.899c0.008-0.018,0.006-0.035,0.012-0.053c0.008-0.024,0.02-0.045,0.023-0.07l0.122-0.806  c0.002-0.013-0.003-0.025-0.002-0.038s0.007-0.023,0.007-0.036V48.31l15.731-9.083v18.038l-0.019,4.599l-0.145,0.38l-0.335,0.223  L92.857,63.271z M22.186,29.952l0.104,0.571c0.002,0.011,0.008,0.019,0.011,0.028c0.006,0.025,0.017,0.049,0.027,0.074  c0.015,0.034,0.031,0.067,0.053,0.098c0.007,0.01,0.009,0.021,0.017,0.031l0.088,0.105c0,0.001,0.001,0.001,0.002,0.002  c0,0,0,0.001,0,0.001l0.13,0.152c0.007,0.009,0.018,0.012,0.026,0.02c0.007,0.01,0.01,0.023,0.019,0.033  c0,0.001,0.001,0.001,0.002,0.001l0.119,0.142c0.012,0.015,0.029,0.02,0.042,0.032c0.032,0.03,0.065,0.058,0.104,0.08  c0.027,0.014,0.053,0.022,0.082,0.032c0.022,0.007,0.04,0.021,0.063,0.025l0.587,0.106c0.03,0.005,0.06,0.008,0.089,0.008l0,0l0,0  c0,0,0,0,0,0c0.008,0,0.016-0.004,0.024-0.004c0.048-0.003,0.097-0.009,0.145-0.025l0.637-0.229  c0.019-0.007,0.031-0.021,0.048-0.029c0.01-0.005,0.022-0.003,0.033-0.009l2.02-1.164c0.001-0.001,0.002-0.002,0.003-0.003  l4.035-2.33l1.01-0.583l1.01-0.583c0.009-0.005,0.014-0.015,0.022-0.021c0.013-0.008,0.027-0.011,0.039-0.021l0.637-0.507  c0.022-0.018,0.034-0.041,0.052-0.062c0.011-0.013,0.027-0.018,0.038-0.031l0.586-0.785c0.017-0.022,0.022-0.048,0.034-0.072  c0.006-0.012,0.02-0.017,0.025-0.029l0.386-0.899c0.007-0.018,0.006-0.035,0.011-0.053c0.007-0.024,0.02-0.045,0.024-0.07  l0.121-0.806c0.002-0.013-0.003-0.025-0.002-0.038s0.007-0.023,0.007-0.036v-0.379l15.039-8.682v21.887L26.575,49.305L7.621,38.362  L22.186,29.952z M52.139,39.371c0.003,0.002,0.006,0.001,0.01,0.003c0.002,0.001,0.004,0.004,0.006,0.006L73.93,51.951l-0.115,0.067  l-4.039,2.331l-1.979,1.143l-0.277,0.099l-0.052-0.286v-0.622c0-0.011-0.005-0.019-0.006-0.029  c-0.001-0.021-0.005-0.043-0.009-0.064c-0.004-0.023-0.01-0.045-0.018-0.067c-0.008-0.021-0.016-0.041-0.025-0.061  c-0.004-0.009-0.004-0.02-0.01-0.028c-0.005-0.009-0.014-0.014-0.02-0.022c-0.012-0.019-0.025-0.034-0.039-0.051  c-0.016-0.019-0.033-0.035-0.051-0.051c-0.017-0.015-0.033-0.027-0.051-0.039c-0.009-0.006-0.014-0.015-0.022-0.02l-0.692-0.4  c-0.02-0.012-0.042-0.013-0.062-0.021c-0.031-0.013-0.061-0.024-0.093-0.031s-0.064-0.007-0.098-0.007  c-0.03,0-0.06,0.001-0.091,0.007c-0.035,0.007-0.068,0.02-0.103,0.034c-0.018,0.008-0.036,0.009-0.054,0.019l-15.789,9.115  L30.273,51.44c-0.001-0.001-0.002-0.002-0.003-0.003l-0.807-0.466l21.44-12.377L52.139,39.371z M28.463,50.396l-0.037-0.021  l21.767-12.566l0.021,0.031L28.463,50.396z M49.422,88.326l0.095-0.069l-0.052,0.062L49.422,88.326z M77.564,47.188  c-0.01,0.005-0.014,0.014-0.021,0.019c-0.02,0.013-0.035,0.025-0.053,0.04c-0.019,0.017-0.034,0.032-0.051,0.051  c-0.014,0.017-0.027,0.033-0.039,0.052c-0.006,0.008-0.014,0.013-0.02,0.021c-0.004,0.009-0.004,0.019-0.009,0.027  c-0.011,0.02-0.019,0.04-0.025,0.062c-0.008,0.022-0.014,0.044-0.019,0.067c-0.004,0.021-0.007,0.042-0.008,0.064  c-0.001,0.01-0.006,0.019-0.006,0.029v0.627l-0.107,0.707l-0.337,0.789l-0.511,0.682l-0.561,0.446l-0.869,0.502l-22.258-12.85  c0,0,0-0.001-0.001-0.001l-1.242-0.779l-0.173-0.139l0,0l-0.017-0.014l-0.273-0.434l-0.132-0.248l-0.098-0.724V14.046l42.117,24.316  L77.564,47.188z M6.967,63.229l-0.433-0.687l-0.105-0.775V39.626L49.044,64.23v22.751l-0.003,0.314l-0.021,0.086l-0.083,0.061  l-0.357-0.118L8.363,64.105c0-0.001,0-0.001,0-0.001L6.967,63.229z"/><path fill="#000000" d="M65.861,31.047c0.004,0.025,0.018,0.046,0.024,0.07c0.005,0.018,0.004,0.035,0.011,0.053l0.258,0.599  c0.005,0.012,0.018,0.017,0.023,0.028c0.013,0.024,0.018,0.052,0.035,0.074l0.391,0.522c0.012,0.015,0.028,0.02,0.04,0.033  c0.018,0.019,0.028,0.041,0.049,0.058l0.425,0.339c0.007,0.006,0.017,0.003,0.023,0.009c0.015,0.01,0.023,0.024,0.039,0.033  l9.23,5.329c0.01,0.006,0.021,0.004,0.031,0.009c0.018,0.009,0.03,0.022,0.049,0.029l0.425,0.153  c0.051,0.018,0.103,0.024,0.153,0.026c0.006,0,0.01,0.003,0.016,0.003c0,0,0,0,0.001,0l0,0l0,0c0.029,0,0.059-0.003,0.089-0.008  l0.391-0.07c0.023-0.004,0.042-0.018,0.064-0.025c0.027-0.009,0.055-0.018,0.082-0.032c0.04-0.021,0.074-0.05,0.105-0.081  c0.014-0.013,0.031-0.019,0.043-0.032l0.256-0.306c0.008-0.009,0.01-0.021,0.018-0.03c0.022-0.031,0.039-0.064,0.055-0.101  c0.01-0.024,0.021-0.048,0.026-0.073c0.003-0.011,0.01-0.02,0.012-0.031l0.004-0.022c0-0.001,0-0.001,0-0.002l0.001-0.007  c0-0.001,0.001-0.001,0.001-0.002l0.074-0.404c0.005-0.027-0.002-0.053-0.001-0.079c0-0.028,0.008-0.057,0.004-0.086l-0.081-0.538  c-0.003-0.023-0.017-0.041-0.022-0.062c-0.006-0.021-0.004-0.041-0.013-0.061l-0.257-0.6c-0.008-0.02-0.023-0.031-0.034-0.049  c-0.01-0.018-0.013-0.037-0.024-0.053l-0.392-0.523c-0.013-0.018-0.031-0.026-0.046-0.041c-0.016-0.017-0.025-0.037-0.043-0.052  l-0.426-0.338c-0.01-0.009-0.023-0.01-0.033-0.018c-0.011-0.007-0.017-0.018-0.027-0.023l-9.23-5.329  c-0.014-0.008-0.029-0.008-0.043-0.014c-0.014-0.007-0.023-0.019-0.039-0.024l-0.388-0.139c-0.001,0-0.001,0-0.001,0l-0.031-0.012  c-0.01-0.004-0.02-0.001-0.029-0.005c-0.035-0.01-0.07-0.013-0.107-0.016c-0.029-0.002-0.057-0.005-0.084-0.002  c-0.014,0.001-0.027-0.004-0.041-0.001l-0.391,0.07c-0.023,0.004-0.042,0.018-0.064,0.025c-0.032,0.011-0.064,0.02-0.095,0.037  s-0.056,0.041-0.081,0.064c-0.018,0.016-0.039,0.024-0.054,0.042l-0.257,0.304c-0.007,0.008-0.009,0.019-0.015,0.027  c-0.02,0.025-0.032,0.054-0.046,0.083c-0.016,0.032-0.031,0.062-0.039,0.097c-0.002,0.009-0.008,0.017-0.01,0.026l-0.082,0.443  c-0.004,0.026,0.002,0.052,0.002,0.077c-0.001,0.029-0.009,0.058-0.004,0.087L65.861,31.047z M76.375,35.511l0.35,0.277l0.314,0.421  l0.209,0.487l0.004,0.031l-8.844-5.105l-0.35-0.278l-0.316-0.424l-0.209-0.486l-0.004-0.03L76.375,35.511z"/></svg>