<svg width='200' height='200' fill="#000000" xmlns:dc="http://purl.org/dc/elements/1.1/" xmlns:cc="http://creativecommons.org/ns#" xmlns:rdf="http://www.w3.org/1999/02/22-rdf-syntax-ns#" xmlns:svg="http://www.w3.org/2000/svg" xmlns="http://www.w3.org/2000/svg" xmlns:sodipodi="http://sodipodi.sourceforge.net/DTD/sodipodi-0.dtd" xmlns:inkscape="http://www.inkscape.org/namespaces/inkscape" version="1.1" x="0px" y="0px" viewBox="0 0 100 100"><g transform="translate(0,-952.36218)"><path style="text-indent:0;text-transform:none;direction:ltr;block-progression:tb;baseline-shift:baseline;color:#000000;enable-background:accumulate;" d="m 74.664946,958.36926 c 0.5116,0.0122 1.0153,0.22975 1.375,0.59375 4.9553,4.98487 9.8921,9.90826 14.875,14.875 0.7496,0.74154 0.7496,2.10221 0,2.84375 -21.4896,21.48958 -42.9792,42.97914 -64.4688,64.46874 -1.5855,1.5738 -3.6703,2.404 -5.7812,2.4687 -1.7068,1.0912 -3.8299,1.3233 -5.7188,0.6875 l -3.5312,1.8438 c -0.7458,0.3773 -1.7261002,0.2206 -2.3171002,-0.3704 -0.5911,-0.591 -0.7477,-1.5713 -0.3704,-2.3171 l 1.8437002,-3.5625 c -0.6367002,-1.8892 -0.4074,-3.9759 0.6876,-5.6875 0.071,-2.0959 0.8746,-4.196 2.4687,-5.7813 21.0208,-21.0208 42.0416,-42.04164 63.0625,-63.06244 l -2.1562,-2.15625 -19.4063,19.40625 c -0.7408,0.75304 -2.105,0.75486 -2.8478,0.004 -0.7428,-0.75106 -0.7259,-2.11511 0.035,-2.84755 l 20.8125,-20.8125 c 0.3744,-0.37864 0.905,-0.59782 1.4375,-0.59375 z m 4.9375,9.8125 -13.4375,13.4375 7.0938,7.09375 13.4374,-13.4375 z m -16.2813,16.28125 -46.7812,46.78119 c 0,0.01 0,0.021 0,0.031 -0.9344,0.9275 -1.3768,2.1673 -1.3125,3.4687 0.03,0.4912 -0.1292,0.9915 -0.4375,1.375 -0.6585,0.7957 -0.7483,1.975 -0.2188,2.9688 0.1576,0.307 0.2338,0.6553 0.2188,1 0.355,-0.02 0.7151,0.056 1.0312,0.2187 0.9911,0.5283 2.1343,0.4461 2.9376,-0.2187 0.379,-0.3194 0.8799,-0.4901 1.375,-0.4688 1.3008,0.071 2.5522,-0.3405 3.5,-1.2812 l 46.7812,-46.78124 z" fill="#000000" fill-opacity="1" fill-rule="evenodd" stroke="none" marker="none" visibility="visible" display="inline" overflow="visible"/></g></svg>