<svg width='200' height='200' fill="#000000" xmlns="http://www.w3.org/2000/svg" xmlns:xlink="http://www.w3.org/1999/xlink" version="1.1" x="0px" y="0px" viewBox="0 0 100 100" style="enable-background:new 0 0 100 100;" xml:space="preserve"><g><path d="M92.7,40c-1.7-0.2-3.6-0.3-5.7-0.5c-0.4,0-0.6-0.3-0.8-0.6c-0.7-2.3-1.6-4.5-2.8-6.7c-0.2-0.3-0.1-0.7,0.1-1   c1.4-1.6,2.6-3,3.7-4.3c1.9-2.3,1.8-5.7-0.4-7.9L81,13.1c-2.2-2.2-5.5-2.3-7.9-0.4c-1.3,1.1-2.8,2.3-4.3,3.7   c-0.3,0.2-0.6,0.3-1,0.1c-2.1-1.1-4.4-2.1-6.7-2.8c-0.3-0.1-0.6-0.4-0.6-0.8c-0.1-2.1-0.3-4-0.5-5.7c-0.3-3-2.8-5.3-5.8-5.3h-8.4   c-3,0-5.6,2.3-5.8,5.3c-0.2,1.7-0.3,3.6-0.5,5.7c0,0.4-0.3,0.6-0.6,0.8c-2.3,0.7-4.5,1.6-6.7,2.8c-0.3,0.2-0.7,0.1-1-0.1   c-1.5-1.4-3-2.6-4.3-3.7c-2.3-1.9-5.7-1.8-7.9,0.4L13.1,19c-2.2,2.2-2.3,5.5-0.4,7.9c1.1,1.3,2.3,2.8,3.7,4.3   c0.2,0.3,0.3,0.6,0.1,1c-1.1,2.1-2.1,4.4-2.8,6.7c-0.1,0.3-0.4,0.6-0.8,0.6c-2.1,0.1-4,0.3-5.7,0.5c-3,0.3-5.3,2.8-5.3,5.8v8.4   c0,3,2.3,5.6,5.3,5.8c1.7,0.2,3.6,0.3,5.7,0.5c0.4,0,0.6,0.3,0.8,0.6c0.7,2.3,1.6,4.5,2.8,6.7c0.2,0.3,0.1,0.7-0.1,1   c-1.4,1.6-2.6,3-3.7,4.3c-1.9,2.3-1.8,5.7,0.4,7.9l5.9,5.9c2.2,2.2,5.5,2.3,7.9,0.4c1.3-1.1,2.8-2.3,4.3-3.7c0.3-0.2,0.6-0.3,1-0.1   c2.1,1.1,4.4,2.1,6.7,2.8c0.3,0.1,0.6,0.4,0.6,0.8c0.1,2.1,0.3,4,0.5,5.7c0.3,3,2.8,5.3,5.8,5.3h8.4c3,0,5.6-2.3,5.8-5.3   c0.2-1.7,0.3-3.6,0.5-5.7c0-0.4,0.3-0.6,0.6-0.8c2.3-0.7,4.5-1.6,6.7-2.8c0.3-0.2,0.7-0.1,1,0.1c1.5,1.4,3,2.6,4.3,3.7   c2.3,1.9,5.7,1.8,7.9-0.4l5.9-5.9c2.2-2.2,2.3-5.5,0.4-7.9c-1.1-1.3-2.3-2.8-3.7-4.3c-0.2-0.3-0.3-0.6-0.1-1   c1.1-2.1,2.1-4.4,2.8-6.7c0.1-0.3,0.4-0.6,0.8-0.6c2.1-0.1,4-0.3,5.7-0.5c3-0.3,5.3-2.8,5.3-5.8v-8.4C98,42.8,95.7,40.2,92.7,40z    M92.9,54.2c0,0.4-0.3,0.8-0.7,0.8c-1.7,0.2-3.5,0.3-5.5,0.4c-2.4,0.2-4.5,1.8-5.2,4.2c-0.6,2-1.4,3.9-2.4,5.8   c-1.1,2.1-0.8,4.8,0.8,6.6c1.3,1.5,2.5,2.9,3.6,4.2c0.3,0.3,0.2,0.8-0.1,1.1l-5.9,5.9c-0.3,0.3-0.8,0.3-1.1,0.1   c-1.3-1.1-2.7-2.3-4.2-3.6c-1.8-1.6-4.5-1.9-6.6-0.8c-1.8,1-3.8,1.8-5.8,2.4c-2.3,0.7-4,2.8-4.2,5.2c-0.1,2-0.3,3.9-0.4,5.5   c0,0.4-0.4,0.7-0.8,0.7h-8.4c-0.4,0-0.8-0.3-0.8-0.7c-0.2-1.7-0.3-3.5-0.4-5.5c-0.2-2.4-1.8-4.5-4.2-5.2c-2-0.6-3.9-1.4-5.8-2.4   c-0.9-0.5-1.8-0.7-2.8-0.7c-1.4,0-2.8,0.5-3.9,1.4c-1.5,1.3-2.9,2.5-4.2,3.6c-0.3,0.3-0.8,0.2-1.1-0.1l-5.9-5.9   c-0.3-0.3-0.3-0.8-0.1-1.1c1.1-1.3,2.3-2.7,3.6-4.2c1.6-1.8,1.9-4.5,0.8-6.6c-1-1.8-1.8-3.8-2.4-5.8c-0.7-2.3-2.8-4-5.2-4.2   c-2-0.1-3.9-0.3-5.5-0.4c-0.4,0-0.7-0.4-0.7-0.8v-8.4c0-0.4,0.3-0.8,0.7-0.8c1.7-0.2,3.5-0.3,5.5-0.4c2.4-0.2,4.5-1.8,5.2-4.2   c0.6-2,1.4-3.9,2.4-5.8c1.1-2.1,0.8-4.8-0.8-6.6c-1.3-1.5-2.6-3-3.6-4.2c-0.3-0.3-0.2-0.8,0.1-1.1l5.9-5.9c0.3-0.3,0.8-0.3,1.1-0.1   c1.3,1.1,2.7,2.3,4.2,3.6c1.8,1.6,4.5,1.9,6.6,0.8c1.8-1,3.8-1.8,5.8-2.4c2.3-0.7,4-2.8,4.2-5.2c0.1-2,0.3-3.9,0.4-5.5   c0-0.4,0.4-0.7,0.8-0.7h8.4c0.4,0,0.8,0.3,0.8,0.7c0.2,1.7,0.3,3.5,0.4,5.5c0.2,2.4,1.8,4.5,4.2,5.2c2,0.6,3.9,1.4,5.8,2.4   c2.1,1.1,4.8,0.8,6.6-0.8c1.5-1.3,2.9-2.5,4.2-3.6c0.3-0.3,0.8-0.2,1.1,0.1l5.9,5.9c0.3,0.3,0.3,0.8,0.1,1.1   c-1.1,1.3-2.3,2.7-3.6,4.2c-1.6,1.8-1.9,4.5-0.8,6.6c1,1.8,1.8,3.8,2.4,5.8c0.7,2.3,2.8,4,5.2,4.2c2,0.1,3.9,0.3,5.5,0.4   c0.4,0,0.7,0.4,0.7,0.8V54.2z"/><path d="M50,35.1c-8.2,0-14.9,6.7-14.9,14.9S41.8,64.9,50,64.9S64.9,58.2,64.9,50S58.2,35.1,50,35.1z M50,59.9   c-5.4,0-9.9-4.4-9.9-9.9s4.4-9.9,9.9-9.9s9.9,4.4,9.9,9.9S55.4,59.9,50,59.9z"/></g></svg>