<svg fill="#000000" xmlns="http://www.w3.org/2000/svg" xmlns:xlink="http://www.w3.org/1999/xlink" version="1.0" x="0px" y="0px" viewBox="0 0 100 100" enable-background="new 0 0 100 100" xml:space="preserve"><path fill="none" stroke="#000000" stroke-width="2" stroke-linecap="round" stroke-linejoin="round" stroke-miterlimit="10" d="  M36.869,36.867l-9.85-9.848C21.139,32.9,17.5,41.023,17.5,49.998c0,8.975,3.639,17.1,9.519,22.983l9.85-9.85  c-3.363-3.358-5.44-8.004-5.44-13.133C31.429,44.871,33.506,40.227,36.869,36.867z"/><path fill="none" stroke="#000000" stroke-width="2" stroke-linecap="round" stroke-linejoin="round" stroke-miterlimit="10" d="  M63.132,63.131l9.85,9.848c5.882-5.881,9.519-14.006,9.519-22.981c0-8.973-3.637-17.098-9.519-22.979l-9.85,9.85  c3.361,3.358,5.439,8.002,5.439,13.129C68.571,55.127,66.493,59.772,63.132,63.131z"/><path fill="none" stroke="#000000" stroke-width="2" stroke-linecap="round" stroke-linejoin="round" stroke-miterlimit="10" d="  M36.869,63.131l-9.85,9.85c5.881,5.882,14.004,9.52,22.979,9.52c8.976,0,17.102-3.638,22.983-9.521l-9.85-9.848  c-3.359,3.361-8.005,5.439-13.133,5.439C44.872,68.57,40.228,66.492,36.869,63.131z"/><path fill="none" stroke="#000000" stroke-width="2" stroke-linecap="round" stroke-linejoin="round" stroke-miterlimit="10" d="  M63.132,36.869l9.85-9.85c-5.881-5.88-14.009-9.519-22.983-9.519c-8.975,0-17.099,3.639-22.979,9.519l9.85,9.85  c3.358-3.36,8.003-5.439,13.129-5.439C55.127,31.429,59.772,33.508,63.132,36.869z"/></svg>